<?xml version="1.0" encoding="utf-8"?>
<!-- Generator: Adobe Illustrator 24.0.2, SVG Export Plug-In . SVG Version: 6.00 Build 0)  -->
<svg version="1.1" id="Layer_1" xmlns="http://www.w3.org/2000/svg" xmlns:xlink="http://www.w3.org/1999/xlink" x="0px" y="0px"
	 viewBox="0 0 1200 1200" style="enable-background:new 0 0 1200 1200;" xml:space="preserve">
<style type="text/css">
	.st0{fill:url(#SVGID_1_);}
	.st1{fill:url(#SVGID_2_);}
	.st2{fill:url(#SVGID_3_);}
	.st3{fill:#D1D3D4;}
	.st4{fill:url(#SVGID_4_);}
	.st5{fill:url(#SVGID_5_);}
	.st6{fill:url(#SVGID_6_);}
</style>
<g>
	<g>
		<g>
			<linearGradient id="SVGID_1_" gradientUnits="userSpaceOnUse" x1="305.6834" y1="166.3109" x2="305.6834" y2="398.1553">
				<stop  offset="0" style="stop-color:#E02A27"/>
				<stop  offset="0.3575" style="stop-color:#FF2D20"/>
			</linearGradient>
			<path class="st0" d="M593.5,394.6H17.8l195-204.5c21.8-22.9,52.1-35.9,83.7-35.9h297"/>
			<linearGradient id="SVGID_2_" gradientUnits="userSpaceOnUse" x1="881.3836" y1="154.2514" x2="881.3836" y2="394.592">
				<stop  offset="0" style="stop-color:#1993C3"/>
				<stop  offset="1" style="stop-color:#38BDF8"/>
			</linearGradient>
			<path class="st1" d="M593.5,154.3h301.7c32.1,0,62.8,13.4,84.7,36.9l189.3,203.5H593.5"/>
			<linearGradient id="SVGID_3_" gradientUnits="userSpaceOnUse" x1="593.5336" y1="154.2514" x2="593.5336" y2="394.592">
				<stop  offset="0" style="stop-color:#19985D"/>
				<stop  offset="1" style="stop-color:#41B883"/>
			</linearGradient>
			<polygon class="st2" points="797.5,394.6 389.5,394.6 470.7,154.3 718.3,154.3 			"/>
			<path class="st3" d="M158.3,532.3l-7.8-43.2c-0.3-1.8-0.2-3.4,0.4-5c0.3-0.7,0.7-1.4,1.3-2.1c0.2-0.3,0.4-0.6,0.7-0.8H66.8
				c-0.5,7.3-0.1,14.9,1.2,22.5l7.8,43.4l24.5,137.5l93.2,44.9L158.3,532.3z M127,833.7l19.7,110.4c7.9,44.3,46.4,76.5,91.3,76.5
				h82.8L127,833.7z M998.4,702.3l-40.6,227.1c-0.7,4.2-4.4,7.3-8.8,7.3H640.8l-127.9,83.8H949c44.9,0,83.4-32.2,91.3-76.5
				l54.5-305.1L998.4,702.3z M1120.3,481.2h-86.1c0.2,0.3,0.5,0.6,0.7,0.9c0.5,0.7,0.9,1.3,1.2,2c0.6,1.6,0.7,3.1,0.4,4.8l-7.8,43.4
				l-4.9,27.4l92.1-38.7l3.1-17.4C1120.4,496.1,1120.8,488.5,1120.3,481.2z"/>
			<linearGradient id="SVGID_4_" gradientUnits="userSpaceOnUse" x1="202.2806" y1="394.592" x2="202.2806" y2="528.7364">
				<stop  offset="0" style="stop-color:#E12B27"/>
				<stop  offset="0.4497" style="stop-color:#FA2D21"/>
			</linearGradient>
			<path class="st4" d="M252.6,528.7H152c-74.1,0-134.1-60.1-134.1-134.1l0,0h368.9l0,0C386.7,468.7,326.7,528.7,252.6,528.7z"/>
			<linearGradient id="SVGID_5_" gradientUnits="userSpaceOnUse" x1="593.5328" y1="397.4608" x2="593.5328" y2="520.5909">
				<stop  offset="0" style="stop-color:#2BA76E"/>
				<stop  offset="1" style="stop-color:#41B883"/>
			</linearGradient>
			<path class="st5" d="M666.2,528.7H520.9c-74.1,0-134.1-60.1-134.1-134.1l0,0h413.6l0,0C800.3,468.7,740.3,528.7,666.2,528.7z"/>
			<linearGradient id="SVGID_6_" gradientUnits="userSpaceOnUse" x1="984.7856" y1="251.4853" x2="984.7856" y2="592.6113">
				<stop  offset="0.2101" style="stop-color:#0B80AC"/>
				<stop  offset="0.2381" style="stop-color:#138BB9"/>
				<stop  offset="0.2985" style="stop-color:#219DD0"/>
				<stop  offset="0.3684" style="stop-color:#2BABE2"/>
				<stop  offset="0.4524" style="stop-color:#32B6EF"/>
				<stop  offset="0.5649" style="stop-color:#37BBF6"/>
				<stop  offset="0.8249" style="stop-color:#38BDF8"/>
			</linearGradient>
			<path class="st6" d="M1035.1,528.7H934.5c-74.1,0-134.1-60.1-134.1-134.1l0,0h368.9l0,0C1169.2,468.7,1109.2,528.7,1035.1,528.7z
				"/>
			<polygon class="st3" points="1178.9,537.1 403.3,1045.7 47.2,702.4 390.6,867.7 			"/>
		</g>
	</g>
</g>
<g>
</g>
<g>
</g>
<g>
</g>
<g>
</g>
<g>
</g>
<g>
</g>
</svg>
